<?xml version="1.0" encoding="UTF-8"?>
<!DOCTYPE svg PUBLIC "-//W3C//DTD SVG 1.1//EN" "http://www.w3.org/Graphics/SVG/1.1/DTD/svg11.dtd">
<svg xmlns="http://www.w3.org/2000/svg" version="1.1" width="188px" height="188px" style="shape-rendering:geometricPrecision; text-rendering:geometricPrecision; image-rendering:optimizeQuality; fill-rule:evenodd; clip-rule:evenodd" xmlns:xlink="http://www.w3.org/1999/xlink">
<g><path style="opacity:0.995" fill="#16509f" d="M 34.5,-0.5 C 73.8333,-0.5 113.167,-0.5 152.5,-0.5C 170.526,4.85961 182.193,16.5263 187.5,34.5C 187.5,73.8333 187.5,113.167 187.5,152.5C 182.14,170.526 170.474,182.193 152.5,187.5C 113.167,187.5 73.8333,187.5 34.5,187.5C 16.4737,182.14 4.80704,170.474 -0.5,152.5C -0.5,113.167 -0.5,73.8333 -0.5,34.5C 4.85961,16.4737 16.5263,4.80704 34.5,-0.5 Z"/></g>
<g><path style="opacity:1" fill="#fafbfd" d="M 85.5,22.5 C 124.885,22.0822 150.719,40.4156 163,77.5C 166.8,96.3662 163.8,114.033 154,130.5C 154.28,141.523 155.113,152.523 156.5,163.5C 147.174,160.839 137.841,158.172 128.5,155.5C 96.5398,171.202 67.7065,166.868 42,142.5C 17.7368,112.483 16.4035,81.4832 38,49.5C 50.5841,34.6288 66.4174,25.6288 85.5,22.5 Z"/></g>
<g><path style="opacity:1" fill="#66a1d0" d="M 87.5,29.5 C 93.6981,28.3679 100.031,28.5346 106.5,30C 103.183,30.4983 99.8499,30.665 96.5,30.5C 93.7131,29.5233 90.7131,29.19 87.5,29.5 Z"/></g>
<g><path style="opacity:1" fill="#166fb6" d="M 87.5,29.5 C 90.7131,29.19 93.7131,29.5233 96.5,30.5C 83.1591,31.9951 74.1591,38.9951 69.5,51.5C 69.38,50.4138 68.7133,49.7472 67.5,49.5C 59.3151,51.9634 50.9817,53.6301 42.5,54.5C 53.7739,39.6913 68.7739,31.358 87.5,29.5 Z"/></g>
<g><path style="opacity:1" fill="#1a509f" d="M 146.5,56.5 C 139.205,62.1554 131.872,67.8221 124.5,73.5C 118.458,68.0563 112.291,62.7229 106,57.5C 101.067,50.5953 101.567,44.0953 107.5,38C 112.104,34.3995 117.104,33.7328 122.5,36C 132.507,40.509 140.507,47.3423 146.5,56.5 Z"/></g>
<g><path style="opacity:1" fill="#1865ae" d="M 69.5,51.5 C 66.7951,63.8975 67.1284,76.2308 70.5,88.5C 69.7354,88.0766 68.9021,87.7432 68,87.5C 55.2011,90.4087 42.3677,93.0754 29.5,95.5C 28.439,80.0203 32.7724,66.3536 42.5,54.5C 50.9817,53.6301 59.3151,51.9634 67.5,49.5C 68.7133,49.7472 69.38,50.4138 69.5,51.5 Z"/></g>
<g><path style="opacity:1" fill="#1056a5" d="M 146.5,56.5 C 157.676,71.6976 161.342,88.6976 157.5,107.5C 150.105,111.626 143.271,116.626 137,122.5C 136.517,121.552 136.351,120.552 136.5,119.5C 139.991,102.128 135.991,86.7951 124.5,73.5C 131.872,67.8221 139.205,62.1554 146.5,56.5 Z"/></g>
<g><path style="opacity:1" fill="#175aa4" d="M 70.5,88.5 C 73.9389,96.4869 76.6056,104.82 78.5,113.5C 64.1502,115.965 50.1502,119.298 36.5,123.5C 31.9937,114.808 29.6604,105.475 29.5,95.5C 42.3677,93.0754 55.2011,90.4087 68,87.5C 68.9021,87.7432 69.7354,88.0766 70.5,88.5 Z"/></g>
<g><path style="opacity:1" fill="#175caa" d="M 157.5,107.5 C 155.713,115.41 152.546,122.743 148,129.5C 148.659,138.126 149.159,146.793 149.5,155.5C 141.952,154.153 134.452,152.486 127,150.5C 119.771,153.799 112.271,156.299 104.5,158C 90.6009,160.295 77.6009,158.128 65.5,151.5C 82.1353,157.414 98.4686,156.581 114.5,149C 125.863,142.08 133.197,132.247 136.5,119.5C 136.351,120.552 136.517,121.552 137,122.5C 143.271,116.626 150.105,111.626 157.5,107.5 Z"/></g>
<g><path style="opacity:1" fill="#22509c" d="M 78.5,113.5 C 77.7355,130.763 68.7355,138.597 51.5,137C 44.4345,134.767 39.4345,130.267 36.5,123.5C 50.1502,119.298 64.1502,115.965 78.5,113.5 Z"/></g>
<g><path style="opacity:1" fill="#90add4" d="M 65.5,151.5 C 62.91,150.872 60.5766,149.705 58.5,148C 61.3359,148.085 63.6693,149.251 65.5,151.5 Z"/></g>
</svg>
