<?xml version="1.0" encoding="UTF-8"?>
<!DOCTYPE svg PUBLIC "-//W3C//DTD SVG 1.1//EN" "http://www.w3.org/Graphics/SVG/1.1/DTD/svg11.dtd">
<svg xmlns="http://www.w3.org/2000/svg" version="1.1" width="198px" height="208px" style="shape-rendering:geometricPrecision; text-rendering:geometricPrecision; image-rendering:optimizeQuality; fill-rule:evenodd; clip-rule:evenodd" xmlns:xlink="http://www.w3.org/1999/xlink">
<g><path style="opacity:0.941" fill="#6e7379" d="M 85.5,-0.5 C 94.1667,-0.5 102.833,-0.5 111.5,-0.5C 160.252,10.2531 188.919,40.2531 197.5,89.5C 197.5,98.8333 197.5,108.167 197.5,117.5C 188.891,166.774 160.224,196.774 111.5,207.5C 102.833,207.5 94.1667,207.5 85.5,207.5C 36.7755,196.774 8.10887,166.774 -0.5,117.5C -0.5,108.167 -0.5,98.8333 -0.5,89.5C 8.08129,40.2531 36.748,10.2531 85.5,-0.5 Z"/></g>
<g><path style="opacity:1" fill="#1a4f9e" d="M 137.5,10.5 C 155.4,17.7174 169.4,29.7174 179.5,46.5C 179.489,48.0174 178.823,49.1841 177.5,50C 166.939,57.0464 156.606,64.5464 146.5,72.5C 137.355,63.0174 127.522,54.3508 117,46.5C 107.615,32.3066 110.115,20.8066 124.5,12C 128.751,10.8054 133.085,10.3054 137.5,10.5 Z"/></g>
<g><path style="opacity:1" fill="#0f6db4" d="M 108.5,1.5 C 105.833,2.16667 103.167,2.83333 100.5,3.5C 79.9511,6.05756 66.2844,17.0576 59.5,36.5C 59.6309,35.6236 59.2975,34.9569 58.5,34.5C 45.8985,37.4838 33.2318,40.1504 20.5,42.5C 41.7935,12.1933 71.1268,-1.47341 108.5,1.5 Z"/></g>
<g><path style="opacity:1" fill="#fdfefe" d="M 100.5,3.5 C 106.5,3.5 112.5,3.5 118.5,3.5C 125.822,4.55136 132.822,6.71802 139.5,10C 138.906,10.4643 138.239,10.631 137.5,10.5C 133.085,10.3054 128.751,10.8054 124.5,12C 110.115,20.8066 107.615,32.3066 117,46.5C 127.522,54.3508 137.355,63.0174 146.5,72.5C 165.002,94.8001 170.669,120.133 163.5,148.5C 151.999,179.455 129.665,196.788 96.5,200.5C 88.149,200.518 79.8156,200.185 71.5,199.5C 65.5,197.833 59.5,196.167 53.5,194.5C 41.4116,188.091 31.0783,179.425 22.5,168.5C 40.2155,175.655 55.3822,171.988 68,157.5C 70.3639,153.781 71.8639,149.781 72.5,145.5C 73.6507,140.35 73.8174,135.016 73,129.5C 72.4338,127.277 71.6005,125.277 70.5,123.5C 70.2041,121.597 69.5375,119.93 68.5,118.5C 66.4432,111.391 64.1099,104.391 61.5,97.5C 59.2405,88.6157 57.4071,79.6157 56,70.5C 55.3255,63.4718 55.4921,56.4718 56.5,49.5C 57.9238,47.4855 58.5905,45.1522 58.5,42.5C 58.8333,40.5 59.1667,38.5 59.5,36.5C 66.2844,17.0576 79.9511,6.05756 100.5,3.5 Z"/></g>
<g><path style="opacity:1" fill="#78abd4" d="M 108.5,1.5 C 112.04,1.75258 115.373,2.41925 118.5,3.5C 112.5,3.5 106.5,3.5 100.5,3.5C 103.167,2.83333 105.833,2.16667 108.5,1.5 Z"/></g>
<g><path style="opacity:1" fill="#90b5d8" d="M 58.5,42.5 C 58.5905,45.1522 57.9238,47.4855 56.5,49.5C 56.4095,46.8478 57.0762,44.5145 58.5,42.5 Z"/></g>
<g><path style="opacity:1" fill="#1762ab" d="M 59.5,36.5 C 59.1667,38.5 58.8333,40.5 58.5,42.5C 57.0762,44.5145 56.4095,46.8478 56.5,49.5C 55.4921,56.4718 55.3255,63.4718 56,70.5C 57.4071,79.6157 59.2405,88.6157 61.5,97.5C 60.8718,95.3283 59.5384,93.6616 57.5,92.5C 39.1101,96.6811 20.7768,101.014 2.5,105.5C 1.51592,108.428 1.18259,111.428 1.5,114.5C -1.79459,87.9782 4.53874,63.9782 20.5,42.5C 33.2318,40.1504 45.8985,37.4838 58.5,34.5C 59.2975,34.9569 59.6309,35.6236 59.5,36.5 Z"/></g>
<g><path style="opacity:1" fill="#0f55a4" d="M 179.5,46.5 C 196.342,72.2445 200.675,99.9112 192.5,129.5C 182.873,135.994 173.54,142.994 164.5,150.5C 163.702,150.043 163.369,149.376 163.5,148.5C 170.669,120.133 165.002,94.8001 146.5,72.5C 156.606,64.5464 166.939,57.0464 177.5,50C 178.823,49.1841 179.489,48.0174 179.5,46.5 Z"/></g>
<g><path style="opacity:1" fill="#155ba5" d="M 61.5,97.5 C 64.1099,104.391 66.4432,111.391 68.5,118.5C 67.7354,118.077 66.9021,117.743 66,117.5C 45.516,122.246 25.016,126.913 4.5,131.5C 2.74704,125.983 1.74704,120.317 1.5,114.5C 1.18259,111.428 1.51592,108.428 2.5,105.5C 20.7768,101.014 39.1101,96.6811 57.5,92.5C 59.5384,93.6616 60.8718,95.3283 61.5,97.5 Z"/></g>
<g><path style="opacity:1" fill="#1655a0" d="M 68.5,118.5 C 69.5375,119.93 70.2041,121.597 70.5,123.5C 71.3755,127.462 72.0422,131.462 72.5,135.5C 53.8499,139.379 35.1832,143.212 16.5,147C 14.3474,147.099 12.6808,147.933 11.5,149.5C 8.0931,144.003 5.75977,138.003 4.5,131.5C 25.016,126.913 45.516,122.246 66,117.5C 66.9021,117.743 67.7354,118.077 68.5,118.5 Z"/></g>
<g><path style="opacity:1" fill="#135aa9" d="M 192.5,129.5 C 184.679,162.164 165.346,185.331 134.5,199C 110.479,207.588 86.4787,207.588 62.5,199C 59.1766,197.96 56.1766,196.46 53.5,194.5C 59.5,196.167 65.5,197.833 71.5,199.5C 76.4226,200.954 81.5893,201.621 87,201.5C 90.3518,201.498 93.5185,201.165 96.5,200.5C 129.665,196.788 151.999,179.455 163.5,148.5C 163.369,149.376 163.702,150.043 164.5,150.5C 173.54,142.994 182.873,135.994 192.5,129.5 Z"/></g>
<g><path style="opacity:1" fill="#5379b4" d="M 70.5,123.5 C 71.6005,125.277 72.4338,127.277 73,129.5C 73.8174,135.016 73.6507,140.35 72.5,145.5C 72.5,142.167 72.5,138.833 72.5,135.5C 72.0422,131.462 71.3755,127.462 70.5,123.5 Z"/></g>
<g><path style="opacity:1" fill="#1f4f9c" d="M 72.5,135.5 C 72.5,138.833 72.5,142.167 72.5,145.5C 71.8639,149.781 70.3639,153.781 68,157.5C 55.3822,171.988 40.2155,175.655 22.5,168.5C 17.6079,162.926 13.9412,156.593 11.5,149.5C 12.6808,147.933 14.3474,147.099 16.5,147C 35.1832,143.212 53.8499,139.379 72.5,135.5 Z"/></g>
<g><path style="opacity:1" fill="#6591c6" d="M 71.5,199.5 C 79.8156,200.185 88.149,200.518 96.5,200.5C 93.5185,201.165 90.3518,201.498 87,201.5C 81.5893,201.621 76.4226,200.954 71.5,199.5 Z"/></g>
</svg>
